HIERARCHY
ROOT RootJoint
{
    OFFSET   0.000000   0.000000   0.000000
    CHANNELS 6 Xposition Yposition Zposition Xrotation Yrotation Zrotation
    JOINT pelvis_lowerback
    {
        OFFSET   0.000000   0.093605   0.000000
        CHANNELS 3 Xrotation Yrotation Zrotation
        JOINT lowerback_torso
        {
            OFFSET   0.000000   0.100000   0.000000
            CHANNELS 3 Xrotation Yrotation Zrotation
            JOINT torso_head
            {
                OFFSET   0.000000   0.282350   0.000000
                CHANNELS 3 Xrotation Yrotation Zrotation
                End Site
                {
                    OFFSET   0.000000   0.192650   0.000000
                }
            }
            JOINT rTorso_Clavicle
            {
                OFFSET  -0.001000   0.157500   0.000000
                CHANNELS 3 Xrotation Yrotation Zrotation
                JOINT rShoulder
                {
                    OFFSET  -0.117647   0.000000   0.000000
                    CHANNELS 3 Xrotation Yrotation Zrotation
                    JOINT rElbow
                    {
                        OFFSET  -0.245000   0.000000   0.000000
                        CHANNELS 3 Xrotation Yrotation Zrotation
                        JOINT rWrist
                        {
                            OFFSET  -0.240000   0.000000   0.000000
                            CHANNELS 3 Xrotation Yrotation Zrotation
                            End Site
                            {
                                OFFSET  -0.116353  -0.002500   0.000000
                            }
                        }
                    }
                }
            }
            JOINT lTorso_Clavicle
            {
                OFFSET   0.001000   0.157500   0.000000
                CHANNELS 3 Xrotation Yrotation Zrotation
                JOINT lShoulder
                {
                    OFFSET   0.117647   0.000000   0.000000
                    CHANNELS 3 Xrotation Yrotation Zrotation
                    JOINT lElbow
                    {
                        OFFSET   0.245000   0.000000   0.000000
                        CHANNELS 3 Xrotation Yrotation Zrotation
                        JOINT lWrist
                        {
                            OFFSET   0.240000   0.000000   0.000000
                            CHANNELS 3 Xrotation Yrotation Zrotation
                            End Site
                            {
                                OFFSET   0.116353  -0.002500   0.000000
                            }
                        }
                    }
                }
            }
        }
    }
    JOINT rHip
    {
        OFFSET  -0.100000  -0.051395   0.000000
        CHANNELS 3 Xrotation Yrotation Zrotation
        JOINT rKnee
        {
            OFFSET   0.000000  -0.410000   0.000000
            CHANNELS 3 Xrotation Yrotation Zrotation
            JOINT rAnkle
            {
                OFFSET   0.000000  -0.390000   0.000000
                CHANNELS 3 Xrotation Yrotation Zrotation
                JOINT rToeJoint
                {
                    OFFSET   0.000000  -0.050000   0.130000
                    CHANNELS 3 Xrotation Yrotation Zrotation
                    End Site
                    {
                        OFFSET  -0.010000   0.002000   0.060000
                    }
                }
            }
        }
    }
    JOINT lHip
    {
        OFFSET   0.100000  -0.051395   0.000000
        CHANNELS 3 Xrotation Yrotation Zrotation
        JOINT lKnee
        {
            OFFSET   0.000000  -0.410000   0.000000
            CHANNELS 3 Xrotation Yrotation Zrotation
            JOINT lAnkle
            {
                OFFSET   0.000000  -0.390000   0.000000
                CHANNELS 3 Xrotation Yrotation Zrotation
                JOINT lToeJoint
                {
                    OFFSET   0.000000  -0.050000   0.130000
                    CHANNELS 3 Xrotation Yrotation Zrotation
                    End Site
                    {
                        OFFSET   0.010000   0.002000   0.060000
                    }
                }
            }
        }
    }
}
MOTION
Frames: 14
Frame Time:   0.008333
 -2.942196   0.911072   3.779804  -9.421572 -78.092236 -10.484088   3.046535   4.667882  -0.834827  -3.650913   5.166720  -2.843989  -2.877823  -1.450686   3.654199  -3.389736  13.346021  -3.966016 -19.163782  34.584355  34.281018   0.032602  77.230703  -0.020829  -0.879924   4.426464  -7.306935   2.198064  -3.674466  -6.877752  -0.747656  -8.603438 -51.287561 -179.798563 -89.574340 -179.797295  -3.324174  -4.100322   7.093290   6.075769   3.012735   3.832351  22.386026   0.001424  -0.006478  -7.072125  10.637215  -1.339434 -29.514577   0.029252   0.030636 -15.993554  -3.296842   0.391950  18.436977  -0.001134   0.002496  -5.818931   2.238321  -0.901065  -1.849437  -0.001190  -0.002005
 -2.947303   0.910380   3.782205  -9.725031 -78.268024 -10.845360   3.121848   4.584428  -0.996848  -3.717677   5.151939  -2.720678  -2.898369  -1.451987   3.751857  -3.241347  12.942572  -3.719185 -18.126768  33.846411  34.593939   0.031259  77.616165  -0.018515  -0.872734   4.582381  -7.223920   2.177975  -3.572971  -6.826777  -0.726204  -8.681507 -51.384434 -179.511416 -89.808118 -179.510100  -3.397893  -4.058418   7.184607   4.826212   2.728680   3.863055  25.497078  -0.001479  -0.015730  -6.839073  10.504033  -0.630126 -31.458892   0.034350   0.042283 -15.317438  -3.506999   0.292980  18.327076  -0.001027   0.002409  -5.979593   2.233382  -0.299829  -1.760421  -0.001295  -0.001940
 -2.952592   0.909283   3.784640 -10.357536 -78.315772 -11.549392   3.217228   4.404398  -1.149290  -3.723270   5.057831  -2.588063  -2.907750  -1.452436   3.837719  -3.037606  12.483400  -3.449644 -17.095584  33.099821  34.901214   0.029053  77.956175  -0.015894  -0.876930   4.678655  -7.157063   2.139012  -3.477356  -6.760876  -0.724331  -8.750839 -51.459445  -3.550233 -89.971160  -3.548956  -3.470345  -4.011457   7.351186   3.575775   2.402795   3.922296  28.799901  -0.004036  -0.021512  -6.533372  10.359026   0.028552 -32.920971   0.035006   0.047043 -14.525708  -3.726971   0.222326  18.232332  -0.000926   0.002192  -6.134645   2.226480   0.262461  -1.703176  -0.001245  -0.001716
 -2.957522   0.909147   3.787201 -11.321041 -78.155362 -12.263368   3.457570   4.119911  -1.538011  -3.643969   4.876634  -2.583735  -2.929035  -1.456463   3.908281  -2.780451  12.008878  -3.110135 -16.085239  32.365022  35.228650   0.027649  78.251267  -0.014229  -0.891227   4.664222  -7.085961   2.078311  -3.419724  -6.736490  -0.739477  -8.814910 -51.511237  -0.434735 -89.736259  -0.433324  -3.547180  -3.895599   7.557176   2.466272   2.102936   3.644272  31.994829  -0.002928  -0.020485  -5.865591  10.175003   0.635018 -30.019508   0.012638   0.016163 -14.101690  -3.880093  -0.216853  18.456731  -0.000418   0.001452  -6.015739   2.231744   0.753728  -1.594956  -0.001311  -0.001510
 -2.962655   0.909243   3.789741 -12.499881 -78.012425 -13.293211   3.658050   3.854059  -1.791130  -3.522224   4.690554  -2.555904  -2.932763  -1.457789   3.962497  -2.499565  11.533592  -2.797002 -15.105378  31.665232  35.545556   0.025421  78.516466  -0.012164  -0.917127   4.573002  -6.929226   2.041663  -3.355558  -6.721777  -0.739385  -8.879278 -51.584543  -0.261918 -89.526626  -0.260466  -3.623183  -3.787362   7.720690   1.453401   1.846779   3.468656  35.030958  -0.002434  -0.019586  -5.378048  10.024052   1.201937 -29.133370   0.005309   0.007244 -13.581386  -4.002698  -0.524122  18.649811  -0.000072   0.000956  -6.001360   2.241276   1.209791  -1.531079  -0.001219  -0.001271
 -2.967899   0.909380   3.792272 -13.657715 -77.893914 -14.334082   3.820114   3.594557  -1.998842  -3.410306   4.503611  -2.507598  -2.934199  -1.458892   4.014020  -2.222476  11.069636  -2.504422 -14.177307  31.004212  35.848901   0.022457  78.759468  -0.009691  -0.947118   4.444559  -6.745311   2.016228  -3.287608  -6.701707  -0.732129  -8.937862 -51.655244  -0.195092 -89.334872  -0.193705  -3.695948  -3.693358   7.858093   0.501208   1.606908   3.310040  37.879746  -0.002373  -0.019262  -4.835223   9.888325   1.734289 -27.263840  -0.005548  -0.005938 -13.038446  -4.117975  -0.787921  18.815969   0.000158   0.000574  -6.007245   2.249490   1.638426  -1.479324  -0.001103  -0.001073
 -2.973202   0.909481   3.794798 -14.778039 -77.808847 -15.348612   3.953490   3.344441  -2.178539  -3.317070   4.320152  -2.450315  -2.936144  -1.460038   4.062818  -1.961110  10.625069  -2.233250 -13.308559  30.383842  36.136823   0.019052  78.984597  -0.006994  -0.977768   4.303754  -6.566078   1.993542  -3.220546  -6.675321  -0.724398  -8.990945 -51.718507  -0.157575 -89.157651  -0.156325  -3.765232  -3.609575   7.988699  -0.401123   1.384959   3.137649  40.520569  -0.002524  -0.019477  -4.269810   9.755680   2.229746 -24.779996  -0.016991  -0.019790 -12.498276  -4.224403  -1.033619  18.977272   0.000327   0.000245  -6.016269   2.256612   2.039739  -1.433861  -0.000985  -0.000918
 -2.978123   0.909321   3.797251 -15.889192 -77.801290 -16.340160   4.141778   3.145339  -2.413734  -3.266700   4.186659  -2.352485  -2.967160  -1.458887   4.069525  -1.753677  10.152091  -1.967943 -12.262878  29.512204  36.468883   0.015973  79.217384  -0.004166  -0.936945   4.428414  -6.553088   1.956034  -3.201154  -6.641618  -0.967410  -9.043693 -51.769604  -0.119769 -88.893999  -0.118705  -3.877052  -3.524351   8.066665  -1.692128   1.152607   2.870860  44.060627  -0.002804  -0.024533  -3.860138   9.094891   2.609679 -22.637195  -0.018887  -0.038902 -12.090536  -4.213854  -1.274429  19.353813   0.000737  -0.000184  -6.307871   2.366566   2.452969  -1.329726  -0.001032  -0.000739
 -2.983109   0.909070   3.799698 -17.165031 -77.738362 -17.525699   4.343581   2.900736  -2.613483  -3.184169   4.005353  -2.237232  -2.995281  -1.454328   4.069015  -1.496130   9.644768  -1.684159 -11.227508  28.650832  36.797372   0.012924  79.410100  -0.001636  -0.907290   4.470889  -6.528092   1.889534  -3.188589  -6.597944  -1.222587  -9.090799 -51.800958  -0.099444 -88.644995  -0.098641  -3.985326  -3.442425   8.234723  -2.928399   0.936448   2.578264  47.520569  -0.001742  -0.028532  -3.466313   8.474511   2.965541 -20.693508  -0.019580  -0.050685 -11.655462  -4.202300  -1.479342  19.776140   0.001127  -0.000403  -6.569665   2.468168   2.840609  -1.253629  -0.000992  -0.000571
 -2.988175   0.908767   3.802132 -18.510835 -77.659683 -18.810598   4.535941   2.630785  -2.777500  -3.088233   3.792209  -2.107216  -3.020286  -1.449911   4.066172  -1.214603   9.130158  -1.396236 -10.225726  27.822777  37.122191   0.009950  79.575465   0.000648  -0.888716   4.426463  -6.470264   1.817092  -3.177981  -6.547627  -1.469637  -9.133847 -51.822170  -0.088074 -88.413696  -0.087545  -4.087439  -3.375384   8.433071  -4.103912   0.750504   2.262443  50.776077  -0.000202  -0.031938  -3.094080   7.896869   3.299175 -18.915645  -0.019207  -0.057519 -11.204172  -4.188626  -1.647736  20.218007   0.001451  -0.000541  -6.805111   2.561298   3.204085  -1.182939  -0.000937  -0.000437
 -2.993317   0.908428   3.804535 -19.902077 -77.587503 -20.167445   4.714758   2.349440  -2.910009  -2.989755   3.562549  -1.966724  -3.043252  -1.446108   4.063122  -0.926633   8.623196  -1.113351  -9.269784  27.036251  37.440236   0.007136  79.721078   0.002679  -0.877389   4.326488  -6.392520   1.744543  -3.169184  -6.494334  -1.704289  -9.173884 -51.837395  -0.080948 -88.198681  -0.080669  -4.184202  -3.319303   8.636062  -5.227200   0.594032   1.927050  53.814535   0.001107  -0.035114  -2.743961   7.358558   3.611783 -17.289304  -0.018169  -0.061103 -10.740825  -4.173994  -1.782372  20.667768   0.001693  -0.000692  -7.019457   2.646451   3.545209  -1.117125  -0.000874  -0.000343
 -2.998541   0.908058   3.806889 -21.331452 -77.530501 -21.586298   4.878381   2.064924  -3.016039  -2.894169   3.325775  -1.819879  -3.064336  -1.442928   4.060851  -0.642498   8.132088  -0.840612  -8.365365  26.294552  37.749289   0.004544  79.851960   0.004453  -0.870356   4.195925  -6.306665   1.673646  -3.162582  -6.440213  -1.925855  -9.211721 -51.848799  -0.075740 -87.998646  -0.075672  -4.276312  -3.270712   8.834133  -6.303006   0.463998   1.578485  56.643658   0.001860  -0.038022  -2.415286   6.856662   3.904656 -15.801828  -0.016838  -0.062474 -10.267021  -4.159814  -1.885961  21.119465   0.001851  -0.000891  -7.216049   2.724013   3.865732  -1.056172  -0.000807  -0.000285
 -3.003851   0.907659   3.809176 -22.793905 -77.490735 -23.059598   5.025491   1.782375  -3.100715  -2.804805   3.087684  -1.670420  -3.083632  -1.440323   4.059679  -0.367887   7.661227  -0.580691  -7.514213  25.598385  38.047963   0.002209  79.971473   0.005971  -0.865717   4.051207  -6.219793   1.604982  -3.158411  -6.386543  -2.134641  -9.247936 -51.857691  -0.071292 -87.812536  -0.071388  -4.364172  -3.227968   9.023465  -7.333503   0.357080   1.223539  59.275689   0.001989  -0.040495  -2.107098   6.388630   4.179068 -14.441610  -0.015467  -0.062275  -9.783989  -4.146927  -1.961213  21.569711   0.001934  -0.001139  -7.397196   2.794457   4.167155  -0.999889  -0.000740  -0.000254
 -3.008894   0.907174   3.811315 -24.013489 -77.451157 -24.290743   5.227757   1.540097  -3.216521  -2.771416   2.875445  -1.522142  -3.081778  -1.416286   4.038017  -0.154033   7.105103  -0.351995  -6.597093  24.689228  38.419933   0.000477  80.047314   0.006727  -0.827676   4.137393  -6.158388   1.530623  -3.216912  -6.349867  -2.559763  -9.260668 -51.859905  -0.061943 -87.574717  -0.062195  -4.447290  -3.171232   9.126324  -8.527713   0.321488   0.856506  61.944528   0.003173  -0.041932  -2.097684   5.623047   4.272448 -13.236297  -0.010896  -0.062479  -9.412826  -4.101156  -2.031942  22.143760   0.002120  -0.001230  -7.898075   2.867144   4.469678  -0.797768  -0.000925  -0.000181
